{
  "accessors": [
    {
      "bufferView": 2,
      "componentType": 5126,
      "count": 35593,
      "max": [
        0.37075409293174744,
        2.7489991188049316,
        0.46609318256378174
      ],
      "min": [
        -0.43068695068359375,
        0.0377948172390461,
        -0.5313990116119385
      ],
      "type": "VEC3"
    },
    {
      "bufferView": 2,
      "byteOffset": 427116,
      "componentType": 5126,
      "count": 35593,
      "max": [
        0.9999861717224121,
        0.999885618686676,
        0.9999282956123352
      ],
      "min": [
        -0.9999468326568604,
        -0.9985917806625366,
        -0.9999632835388184
      ],
      "type": "VEC3"
    },
    {
      "bufferView": 3,
      "componentType": 5126,
      "count": 35593,
      "max": [
        0.9999237060546875,
        0.9999983310699463,
        0.9998430609703064,
        1.0
      ],
      "min": [
        -0.9999938011169434,
        -0.999994158744812,
        -0.9997442364692688,
        -1.0
      ],
      "type": "VEC4"
    },
    {
      "bufferView": 1,
      "componentType": 5126,
      "count": 35593,
      "max": [
        0.9966921210289001,
        0.9999023079872131
      ],
      "min": [
        6.163788270896475e-07,
        1.895427703857422e-05
      ],
      "type": "VEC2"
    },
    {
      "bufferView": 1,
      "byteOffset": 284744,
      "componentType": 5126,
      "count": 35593,
      "max": [
        0.9966921210289001,
        0.9999023079872131
      ],
      "min": [
        6.163788270896475e-07,
        1.895427703857422e-05
      ],
      "type": "VEC2"
    },
    {
      "bufferView": 1,
      "byteOffset": 569488,
      "componentType": 5126,
      "count": 35593,
      "max": [
        0.9966921210289001,
        0.9999023079872131
      ],
      "min": [
        6.163788270896475e-07,
        1.895427703857422e-05
      ],
      "type": "VEC2"
    },
    {
      "bufferView": 0,
      "componentType": 5125,
      "count": 185064,
      "type": "SCALAR"
    },
    {
      "bufferView": 2,
      "byteOffset": 854232,
      "componentType": 5126,
      "count": 120,
      "max": [
        0.2700035870075226,
        0.03907869756221771,
        0.3485639691352844
      ],
      "min": [
        -0.37036794424057007,
        0.0377948172390461,
        -0.4499712586402893
      ],
      "type": "VEC3"
    },
    {
      "bufferView": 2,
      "byteOffset": 855672,
      "componentType": 5126,
      "count": 120,
      "max": [
        1.0985915288586057e-08,
        -1.0,
        3.182924774591811e-05
      ],
      "min": [
        -0.0001840752811403945,
        -1.0,
        2.6268487385294748e-09
      ],
      "type": "VEC3"
    },
    {
      "bufferView": 1,
      "byteOffset": 854232,
      "componentType": 5126,
      "count": 120,
      "max": [
        0.0,
        1.0
      ],
      "min": [
        0.0,
        1.0
      ],
      "type": "VEC2"
    },
    {
      "bufferView": 0,
      "byteOffset": 740256,
      "componentType": 5125,
      "count": 348,
      "type": "SCALAR"
    }
  ],
  "asset": {
    "extras": {
      "author": "HUMANITY ARCHIVER (https://sketchfab.com/Humanityarchiver)",
      "license": "CC-BY-4.0 (http://creativecommons.org/licenses/by/4.0/)",
      "source": "https://sketchfab.com/3d-models/a4354c1cc08a45ebbbda4274ec3c3996",
      "title": "황세웅"
    },
    "generator": "Sketchfab-16.9.0",
    "version": "2.0"
  },
  "bufferViews": [
    {
      "buffer": 0,
      "byteLength": 741648,
      "name": "floatBufferViews",
      "target": 34963
    },
    {
      "buffer": 0,
      "byteLength": 855192,
      "byteOffset": 741648,
      "byteStride": 8,
      "name": "floatBufferViews",
      "target": 34962
    },
    {
      "buffer": 0,
      "byteLength": 857112,
      "byteOffset": 1596840,
      "byteStride": 12,
      "name": "floatBufferViews",
      "target": 34962
    },
    {
      "buffer": 0,
      "byteLength": 569488,
      "byteOffset": 2453952,
      "byteStride": 16,
      "name": "floatBufferViews",
      "target": 34962
    }
  ],
  "buffers": [
    {
      "byteLength": 3023440,
      "uri": "scene.bin"
    }
  ],
  "images": [
    {
      "uri": "textures/Material_0.002_baseColor.jpeg"
    },
    {
      "uri": "textures/Material_0.002_metallicRoughness.png"
    },
    {
      "uri": "textures/Material_0.002_normal.jpeg"
    }
  ],
  "materials": [
    {
      "name": "Material_0.002",
      "normalTexture": {
        "index": 2
      },
      "occlusionTexture": {
        "index": 1
      },
      "pbrMetallicRoughness": {
        "baseColorTexture": {
          "index": 0
        },
        "metallicFactor": 0.0,
        "metallicRoughnessTexture": {
          "index": 1
        }
      }
    },
    {
      "doubleSided": true,
      "name": "Material.003",
      "pbrMetallicRoughness": {
        "baseColorFactor": [
          0.0,
          0.0,
          0.0,
          1.0
        ],
        "metallicFactor": 0.0,
        "roughnessFactor": 0.5
      }
    }
  ],
  "meshes": [
    {
      "name": "Object_0",
      "primitives": [
        {
          "attributes": {
            "NORMAL": 1,
            "POSITION": 0,
            "TANGENT": 2,
            "TEXCOORD_0": 3,
            "TEXCOORD_1": 4,
            "TEXCOORD_2": 5
          },
          "indices": 6,
          "material": 0,
          "mode": 4
        }
      ]
    },
    {
      "name": "Object_1",
      "primitives": [
        {
          "attributes": {
            "NORMAL": 8,
            "POSITION": 7,
            "TEXCOORD_0": 9
          },
          "indices": 10,
          "material": 1,
          "mode": 4
        }
      ]
    }
  ],
  "nodes": [
    {
      "children": [
        1
      ],
      "matrix": [
        1.0,
        0.0,
        0.0,
        0.0,
        0.0,
        2.220446049250313e-16,
        -1.0,
        0.0,
        0.0,
        1.0,
        2.220446049250313e-16,
        0.0,
        0.0,
        0.0,
        0.0,
        1.0
      ],
      "name": "Sketchfab_model"
    },
    {
      "children": [
        2
      ],
      "name": "root"
    },
    {
      "children": [
        3
      ],
      "matrix": [
        1.0,
        0.0,
        0.0,
        0.0,
        0.0,
        2.220446049250313e-16,
        1.0,
        0.0,
        0.0,
        -1.0,
        2.220446049250313e-16,
        0.0,
        0.0,
        0.0,
        0.0,
        1.0
      ],
      "name": "GLTF_SceneRootNode"
    },
    {
      "children": [
        4,
        5
      ],
      "name": "Mesh_0.002_0"
    },
    {
      "mesh": 0,
      "name": "Object_4"
    },
    {
      "mesh": 1,
      "name": "Object_5"
    }
  ],
  "samplers": [
    {
      "magFilter": 9729,
      "minFilter": 9987,
      "wrapS": 10497,
      "wrapT": 10497
    }
  ],
  "scene": 0,
  "scenes": [
    {
      "name": "Sketchfab_Scene",
      "nodes": [
        0
      ]
    }
  ],
  "textures": [
    {
      "sampler": 0,
      "source": 0
    },
    {
      "sampler": 0,
      "source": 1
    },
    {
      "sampler": 0,
      "source": 2
    }
  ]
}
